<svg xmlns="http://www.w3.org/2000/svg" xmlns:xlink="http://www.w3.org/1999/xlink" width="40" zoomAndPan="magnify" viewBox="0 0 30 30.000001" height="40" preserveAspectRatio="xMidYMid meet" version="1.0"><defs><clipPath id="85914842a6"><path d="M 0.484375 0 L 29.515625 0 L 29.515625 29.03125 L 0.484375 29.03125 Z M 0.484375 0 " clip-rule="nonzero"/></clipPath><clipPath id="2d5de07652"><path d="M 6.796875 7.257812 L 23.492188 7.257812 L 23.492188 23.953125 L 6.796875 23.953125 Z M 6.796875 7.257812 " clip-rule="nonzero"/></clipPath><clipPath id="f34d7c8f12"><path d="M 14.054688 14.296875 L 15.945312 14.296875 L 15.945312 16.183594 L 14.054688 16.183594 Z M 14.054688 14.296875 " clip-rule="nonzero"/></clipPath><clipPath id="95c85b445f"><path d="M 15 14.296875 C 14.480469 14.296875 14.054688 14.722656 14.054688 15.242188 C 14.054688 15.761719 14.480469 16.183594 15 16.183594 C 15.519531 16.183594 15.945312 15.761719 15.945312 15.242188 C 15.945312 14.722656 15.519531 14.296875 15 14.296875 Z M 15 14.296875 " clip-rule="nonzero"/></clipPath><clipPath id="9fe4397b81"><path d="M 0.0546875 0.296875 L 1.945312 0.296875 L 1.945312 2.183594 L 0.0546875 2.183594 Z M 0.0546875 0.296875 " clip-rule="nonzero"/></clipPath><clipPath id="4450dedd81"><path d="M 1 0.296875 C 0.480469 0.296875 0.0546875 0.722656 0.0546875 1.242188 C 0.0546875 1.761719 0.480469 2.183594 1 2.183594 C 1.519531 2.183594 1.945312 1.761719 1.945312 1.242188 C 1.945312 0.722656 1.519531 0.296875 1 0.296875 Z M 1 0.296875 " clip-rule="nonzero"/></clipPath><clipPath id="84b2330d3e"><rect x="0" width="2" y="0" height="3"/></clipPath></defs><g clip-path="url(#85914842a6)"><path fill="#ffffff" d="M 0.484375 0 L 29.515625 0 L 29.515625 29.03125 L 0.484375 29.03125 Z M 0.484375 0 " fill-opacity="1" fill-rule="nonzero"/><path fill="#d3d3d3" d="M 0.484375 0 L 29.515625 0 L 29.515625 29.03125 L 0.484375 29.03125 Z M 0.484375 0 " fill-opacity="1" fill-rule="nonzero"/></g><g clip-path="url(#2d5de07652)"><path fill="#000000" d="M 15.144531 7.257812 C 10.535156 7.257812 6.796875 10.992188 6.796875 15.605469 C 6.796875 20.214844 10.535156 23.953125 15.144531 23.953125 C 19.757812 23.953125 23.492188 20.214844 23.492188 15.605469 C 23.492188 10.992188 19.757812 7.257812 15.144531 7.257812 Z M 15.144531 22.28125 C 11.464844 22.28125 8.46875 19.285156 8.46875 15.605469 C 8.46875 11.925781 11.464844 8.925781 15.144531 8.925781 C 18.824219 8.925781 21.824219 11.925781 21.824219 15.605469 C 21.824219 19.285156 18.824219 22.28125 15.144531 22.28125 Z M 15.144531 22.28125 " fill-opacity="1" fill-rule="nonzero"/></g><path stroke-linecap="butt" transform="matrix(0.00000000126677, -0.725806, 0.725806, 0.00000000126677, 14.274193, 15.459679)" fill="none" stroke-linejoin="miter" d="M -0.00173362 1.000001 L 8.501739 1.000001 " stroke="#000000" stroke-width="2" stroke-opacity="1" stroke-miterlimit="4"/><path stroke-linecap="butt" transform="matrix(0.673894, 0.269558, -0.269558, 0.673894, 15.26935, 14.786862)" fill="none" stroke-linejoin="miter" d="M 0.000359281 1.000126 L 7.540847 0.998127 " stroke="#000000" stroke-width="2" stroke-opacity="1" stroke-miterlimit="4"/><g clip-path="url(#f34d7c8f12)"><g clip-path="url(#95c85b445f)"><g transform="matrix(1, 0, 0, 1, 14, 14)"><g clip-path="url(#84b2330d3e)"><g clip-path="url(#9fe4397b81)"><g clip-path="url(#4450dedd81)"><path fill="#011e31" d="M 0.0546875 0.296875 L 1.945312 0.296875 L 1.945312 2.183594 L 0.0546875 2.183594 Z M 0.0546875 0.296875 " fill-opacity="1" fill-rule="nonzero"/></g></g></g></g></g></g></svg>