<svg xmlns="http://www.w3.org/2000/svg" xmlns:xlink="http://www.w3.org/1999/xlink" width="40" zoomAndPan="magnify" viewBox="0 0 30 30.000001" height="40" preserveAspectRatio="xMidYMid meet" version="1.0"><defs><clipPath id="58369e64f1"><path d="M 0.484375 0 L 29.515625 0 L 29.515625 29.03125 L 0.484375 29.03125 Z M 0.484375 0 " clip-rule="nonzero"/></clipPath><clipPath id="fd6e0455a6"><path d="M 0.484375 0 L 29.515625 0 L 29.515625 28.742188 L 0.484375 28.742188 Z M 0.484375 0 " clip-rule="nonzero"/></clipPath><clipPath id="7fc6501797"><path d="M 29.371094 3.3125 C 28.578125 3.3125 27.933594 2.664062 27.933594 1.875 L 27.9375 1.296875 L 27.359375 1.296875 C 26.566406 1.292969 25.925781 0.648438 25.925781 -0.144531 L 25.925781 -0.289062 L 4.070312 -0.289062 L 4.070312 -0.144531 C 4.074219 0.238281 3.925781 0.601562 3.652344 0.871094 C 3.382812 1.144531 3.023438 1.292969 2.636719 1.296875 L 2.0625 1.296875 L 2.0625 1.875 C 2.0625 2.667969 1.421875 3.3125 0.628906 3.3125 L 0.484375 3.3125 L 0.484375 26.820312 L 0.628906 26.820312 C 1.605469 26.820312 2.402344 27.617188 2.402344 28.597656 L 2.402344 28.742188 L 27.59375 28.742188 L 27.59375 28.59375 C 27.59375 27.617188 28.390625 26.820312 29.371094 26.820312 L 29.515625 26.820312 L 29.515625 3.3125 Z M 29.222656 26.535156 C 28.203125 26.605469 27.382812 27.425781 27.308594 28.453125 L 2.6875 28.453125 C 2.617188 27.429688 1.796875 26.605469 0.773438 26.535156 L 0.773438 3.597656 C 1.660156 3.523438 2.355469 2.777344 2.351562 1.871094 L 2.351562 1.585938 L 2.636719 1.585938 C 3.542969 1.582031 4.285156 0.886719 4.355469 0 L 25.640625 0 C 25.714844 0.886719 26.457031 1.582031 27.359375 1.585938 L 27.644531 1.585938 L 27.644531 1.871094 C 27.644531 2.777344 28.339844 3.523438 29.222656 3.597656 Z M 27.007812 2.269531 L 27.003906 2.226562 L 26.960938 2.21875 C 26.46875 2.136719 26.019531 1.90625 25.664062 1.546875 C 25.421875 1.304688 25.242188 1.019531 25.121094 0.703125 L 25.105469 0.667969 L 4.890625 0.667969 L 4.878906 0.703125 C 4.757812 1.019531 4.574219 1.304688 4.332031 1.546875 C 3.976562 1.90625 3.527344 2.136719 3.035156 2.21875 L 2.996094 2.226562 L 2.988281 2.269531 C 2.851562 3.101562 2.273438 3.8125 1.480469 4.113281 L 1.441406 4.128906 L 1.441406 25.984375 L 1.480469 26 C 2.304688 26.269531 2.953125 26.921875 3.222656 27.746094 L 3.238281 27.785156 L 26.761719 27.785156 L 26.773438 27.746094 C 27.042969 26.921875 27.695312 26.269531 28.515625 26 L 28.558594 25.984375 L 28.558594 4.128906 L 28.519531 4.113281 C 27.726562 3.808594 27.148438 3.101562 27.007812 2.269531 Z M 28.441406 25.902344 C 27.617188 26.1875 26.960938 26.84375 26.675781 27.667969 L 3.320312 27.667969 C 3.035156 26.84375 2.382812 26.1875 1.558594 25.902344 L 1.558594 4.207031 C 2.359375 3.886719 2.941406 3.171875 3.097656 2.328125 C 3.597656 2.234375 4.050781 1.996094 4.414062 1.628906 C 4.65625 1.386719 4.84375 1.101562 4.96875 0.785156 L 25.027344 0.785156 C 25.152344 1.101562 25.339844 1.386719 25.582031 1.628906 C 25.945312 1.996094 26.402344 2.234375 26.902344 2.328125 C 27.054688 3.171875 27.640625 3.886719 28.441406 4.207031 Z M 28.441406 25.902344 " clip-rule="nonzero"/></clipPath><clipPath id="90c0feed87"><path d="M 0.484375 0 L 29.515625 0 L 29.515625 28.742188 L 0.484375 28.742188 Z M 0.484375 0 " clip-rule="nonzero"/></clipPath><clipPath id="a7318c2fbf"><path d="M 29.371094 3.3125 C 28.578125 3.3125 27.933594 2.664062 27.933594 1.875 L 27.9375 1.296875 L 27.359375 1.296875 C 26.566406 1.292969 25.925781 0.648438 25.925781 -0.144531 L 25.925781 -0.289062 L 4.070312 -0.289062 L 4.070312 -0.144531 C 4.074219 0.238281 3.925781 0.601562 3.652344 0.871094 C 3.382812 1.144531 3.023438 1.292969 2.636719 1.296875 L 2.0625 1.296875 L 2.0625 1.875 C 2.0625 2.667969 1.421875 3.3125 0.628906 3.3125 L 0.484375 3.3125 L 0.484375 26.820312 L 0.628906 26.820312 C 1.605469 26.820312 2.402344 27.617188 2.402344 28.597656 L 2.402344 28.742188 L 27.59375 28.742188 L 27.59375 28.59375 C 27.59375 27.617188 28.390625 26.820312 29.371094 26.820312 L 29.515625 26.820312 L 29.515625 3.3125 Z M 29.222656 26.535156 C 28.203125 26.605469 27.382812 27.425781 27.308594 28.453125 L 2.6875 28.453125 C 2.617188 27.429688 1.796875 26.605469 0.773438 26.535156 L 0.773438 3.597656 C 1.660156 3.523438 2.355469 2.777344 2.351562 1.871094 L 2.351562 1.585938 L 2.636719 1.585938 C 3.542969 1.582031 4.285156 0.886719 4.355469 0 L 25.640625 0 C 25.714844 0.886719 26.457031 1.582031 27.359375 1.585938 L 27.644531 1.585938 L 27.644531 1.871094 C 27.644531 2.777344 28.339844 3.523438 29.222656 3.597656 Z M 27.007812 2.269531 L 27.003906 2.226562 L 26.960938 2.21875 C 26.46875 2.136719 26.019531 1.90625 25.664062 1.546875 C 25.421875 1.304688 25.242188 1.019531 25.121094 0.703125 L 25.105469 0.667969 L 4.890625 0.667969 L 4.878906 0.703125 C 4.757812 1.019531 4.574219 1.304688 4.332031 1.546875 C 3.976562 1.90625 3.527344 2.136719 3.035156 2.21875 L 2.996094 2.226562 L 2.988281 2.269531 C 2.851562 3.101562 2.273438 3.8125 1.480469 4.113281 L 1.441406 4.128906 L 1.441406 25.984375 L 1.480469 26 C 2.304688 26.269531 2.953125 26.921875 3.222656 27.746094 L 3.238281 27.785156 L 26.761719 27.785156 L 26.773438 27.746094 C 27.042969 26.921875 27.695312 26.269531 28.515625 26 L 28.558594 25.984375 L 28.558594 4.128906 L 28.519531 4.113281 C 27.726562 3.808594 27.148438 3.101562 27.007812 2.269531 Z M 28.441406 25.902344 C 27.617188 26.1875 26.960938 26.84375 26.675781 27.667969 L 3.320312 27.667969 C 3.035156 26.84375 2.382812 26.1875 1.558594 25.902344 L 1.558594 4.207031 C 2.359375 3.886719 2.941406 3.171875 3.097656 2.328125 C 3.597656 2.234375 4.050781 1.996094 4.414062 1.628906 C 4.65625 1.386719 4.84375 1.101562 4.96875 0.785156 L 25.027344 0.785156 C 25.152344 1.101562 25.339844 1.386719 25.582031 1.628906 C 25.945312 1.996094 26.402344 2.234375 26.902344 2.328125 C 27.054688 3.171875 27.640625 3.886719 28.441406 4.207031 Z M 28.441406 25.902344 " clip-rule="nonzero"/></clipPath><clipPath id="545d51cf9f"><rect x="0" width="30" y="0" height="29"/></clipPath><clipPath id="1d2d8be14e"><path d="M 9.136719 6.484375 L 20.75 6.484375 L 20.75 20.273438 L 9.136719 20.273438 Z M 9.136719 6.484375 " clip-rule="nonzero"/></clipPath></defs><g clip-path="url(#58369e64f1)"><path fill="#ffffff" d="M 0.484375 0 L 29.515625 0 L 29.515625 29.03125 L 0.484375 29.03125 Z M 0.484375 0 " fill-opacity="1" fill-rule="nonzero"/><path fill="#ffffff" d="M 0.484375 0 L 29.515625 0 L 29.515625 29.03125 L 0.484375 29.03125 Z M 0.484375 0 " fill-opacity="1" fill-rule="nonzero"/></g><g clip-path="url(#fd6e0455a6)"><g clip-path="url(#7fc6501797)"><g transform="matrix(1, 0, 0, 1, 0, 0.000000000000005692)"><g clip-path="url(#545d51cf9f)"><g clip-path="url(#90c0feed87)"><g clip-path="url(#a7318c2fbf)"><path fill="#919191" d="M 0.484375 -0.289062 L 29.515625 -0.289062 L 29.515625 28.742188 L 0.484375 28.742188 Z M 0.484375 -0.289062 " fill-opacity="1" fill-rule="nonzero"/></g></g></g></g></g></g><g clip-path="url(#1d2d8be14e)"><path fill="#000000" d="M 14.710938 7.433594 L 14.710938 6.71875 C 14.710938 6.5625 14.789062 6.484375 14.945312 6.484375 C 15.097656 6.484375 15.175781 6.5625 15.175781 6.71875 L 15.175781 7.433594 C 15.175781 7.59375 15.097656 7.671875 14.945312 7.671875 C 14.789062 7.671875 14.710938 7.59375 14.710938 7.433594 Z M 12.304688 8.222656 C 12.382812 8.359375 12.488281 8.386719 12.621094 8.308594 C 12.757812 8.230469 12.785156 8.121094 12.707031 7.984375 L 12.359375 7.367188 C 12.28125 7.230469 12.175781 7.199219 12.042969 7.28125 C 11.90625 7.359375 11.878906 7.46875 11.957031 7.605469 Z M 10.835938 9.722656 L 10.234375 9.367188 C 10.101562 9.289062 9.996094 9.316406 9.917969 9.453125 C 9.839844 9.59375 9.867188 9.703125 10.003906 9.78125 L 10.605469 10.136719 C 10.738281 10.214844 10.84375 10.1875 10.921875 10.050781 C 11 9.910156 10.972656 9.804688 10.835938 9.722656 Z M 10.066406 12.1875 L 9.371094 12.1875 C 9.214844 12.1875 9.140625 12.269531 9.140625 12.425781 C 9.140625 12.585938 9.214844 12.664062 9.371094 12.664062 L 10.066406 12.664062 C 10.222656 12.664062 10.300781 12.585938 10.300781 12.425781 C 10.300781 12.269531 10.222656 12.1875 10.066406 12.1875 Z M 20.515625 12.1875 L 19.820312 12.1875 C 19.664062 12.1875 19.589844 12.269531 19.589844 12.425781 C 19.589844 12.585938 19.664062 12.664062 19.820312 12.664062 L 20.515625 12.664062 C 20.671875 12.664062 20.75 12.585938 20.75 12.425781 C 20.75 12.269531 20.671875 12.1875 20.515625 12.1875 Z M 19.972656 9.453125 C 19.9375 9.398438 19.890625 9.359375 19.828125 9.34375 C 19.769531 9.324219 19.707031 9.332031 19.652344 9.367188 L 19.050781 9.722656 C 18.917969 9.804688 18.886719 9.910156 18.964844 10.050781 C 19.042969 10.1875 19.148438 10.214844 19.285156 10.136719 L 19.886719 9.78125 C 19.941406 9.746094 19.976562 9.699219 19.996094 9.636719 C 20.011719 9.574219 20.003906 9.511719 19.972656 9.453125 Z M 17.265625 8.308594 C 17.320312 8.34375 17.378906 8.351562 17.441406 8.332031 C 17.503906 8.316406 17.550781 8.277344 17.585938 8.222656 L 17.933594 7.605469 C 18.011719 7.46875 17.980469 7.359375 17.847656 7.28125 C 17.710938 7.199219 17.605469 7.230469 17.527344 7.367188 L 17.179688 7.984375 C 17.148438 8.039062 17.140625 8.101562 17.15625 8.164062 C 17.171875 8.226562 17.210938 8.277344 17.265625 8.308594 Z M 17.671875 9.496094 C 18.023438 9.84375 18.304688 10.242188 18.511719 10.695312 C 18.722656 11.148438 18.84375 11.621094 18.878906 12.121094 C 18.914062 12.621094 18.863281 13.109375 18.722656 13.589844 C 18.582031 14.066406 18.359375 14.503906 18.058594 14.898438 C 17.390625 15.746094 17.046875 16.714844 17.035156 17.804688 C 17.035156 17.960938 16.980469 18.09375 16.871094 18.203125 C 16.761719 18.316406 16.632812 18.371094 16.480469 18.371094 L 13.335938 18.371094 C 13.203125 18.371094 13.089844 18.324219 12.996094 18.226562 C 12.902344 18.128906 12.855469 18.011719 12.855469 17.875 C 12.871094 16.796875 12.550781 15.832031 11.894531 14.988281 C 11.578125 14.589844 11.34375 14.144531 11.191406 13.65625 C 11.039062 13.167969 10.980469 12.664062 11.015625 12.152344 C 11.050781 11.640625 11.175781 11.152344 11.394531 10.691406 C 11.609375 10.226562 11.902344 9.820312 12.269531 9.472656 C 12.636719 9.121094 13.054688 8.855469 13.523438 8.667969 C 13.988281 8.480469 14.472656 8.390625 14.976562 8.394531 C 15.476562 8.394531 15.960938 8.492188 16.425781 8.683594 C 16.890625 8.875 17.304688 9.148438 17.671875 9.503906 Z M 18.425781 12.425781 C 18.425781 11.953125 18.339844 11.5 18.160156 11.0625 C 17.984375 10.625 17.734375 10.238281 17.40625 9.90625 C 17.082031 9.570312 16.703125 9.3125 16.277344 9.132812 C 15.851562 8.949219 15.40625 8.859375 14.945312 8.859375 C 14.886719 8.859375 14.832031 8.859375 14.773438 8.859375 C 14.117188 8.894531 13.515625 9.101562 12.972656 9.480469 C 12.429688 9.863281 12.027344 10.359375 11.757812 10.976562 C 11.492188 11.59375 11.402344 12.234375 11.492188 12.902344 C 11.578125 13.570312 11.832031 14.164062 12.25 14.6875 C 12.976562 15.617188 13.335938 16.683594 13.320312 17.875 C 13.320312 17.886719 13.324219 17.894531 13.335938 17.894531 L 16.480469 17.894531 C 16.539062 17.894531 16.566406 17.863281 16.570312 17.804688 C 16.582031 16.605469 16.957031 15.542969 17.691406 14.613281 C 18.183594 13.972656 18.429688 13.242188 18.425781 12.425781 Z M 17.035156 19.558594 C 17.035156 19.757812 16.964844 19.925781 16.828125 20.0625 C 16.695312 20.203125 16.53125 20.273438 16.335938 20.273438 L 13.550781 20.273438 C 13.359375 20.273438 13.195312 20.203125 13.058594 20.0625 C 12.921875 19.925781 12.855469 19.757812 12.855469 19.558594 C 12.855469 19.363281 12.921875 19.195312 13.058594 19.054688 C 13.195312 18.917969 13.359375 18.847656 13.550781 18.847656 L 16.335938 18.847656 C 16.53125 18.847656 16.695312 18.917969 16.828125 19.054688 C 16.964844 19.195312 17.035156 19.363281 17.035156 19.558594 Z M 16.570312 19.558594 C 16.570312 19.402344 16.492188 19.320312 16.335938 19.320312 L 13.550781 19.320312 C 13.394531 19.320312 13.320312 19.402344 13.320312 19.558594 C 13.320312 19.71875 13.394531 19.796875 13.550781 19.796875 L 16.335938 19.796875 C 16.492188 19.796875 16.570312 19.71875 16.570312 19.558594 Z M 16.570312 19.558594 " fill-opacity="1" fill-rule="nonzero"/></g></svg>