<svg xmlns="http://www.w3.org/2000/svg" xmlns:xlink="http://www.w3.org/1999/xlink" width="40" zoomAndPan="magnify" viewBox="0 0 30 30.000001" height="40" preserveAspectRatio="xMidYMid meet" version="1.0"><defs><clipPath id="6d5444cde8"><path d="M 0.484375 0 L 29.515625 0 L 29.515625 29.03125 L 0.484375 29.03125 Z M 0.484375 0 " clip-rule="nonzero"/></clipPath><clipPath id="639798474c"><path d="M 0.484375 0 L 29.515625 0 L 29.515625 29.03125 L 0.484375 29.03125 Z M 0.484375 0 " clip-rule="nonzero"/></clipPath><clipPath id="03e56c6a91"><path d="M 29.371094 3.601562 C 28.578125 3.601562 27.933594 2.957031 27.933594 2.164062 L 27.9375 1.585938 L 27.359375 1.585938 C 26.566406 1.585938 25.925781 0.9375 25.925781 0.144531 L 25.925781 0 L 4.070312 0 L 4.070312 0.144531 C 4.074219 0.53125 3.925781 0.890625 3.652344 1.164062 C 3.382812 1.433594 3.023438 1.585938 2.636719 1.585938 L 2.0625 1.585938 L 2.0625 2.164062 C 2.0625 2.957031 1.421875 3.601562 0.628906 3.605469 L 0.484375 3.601562 L 0.484375 27.109375 L 0.628906 27.109375 C 1.605469 27.109375 2.402344 27.90625 2.402344 28.886719 L 2.402344 29.03125 L 27.59375 29.03125 L 27.59375 28.882812 C 27.59375 27.90625 28.390625 27.109375 29.371094 27.109375 L 29.515625 27.109375 L 29.515625 3.601562 Z M 29.222656 26.824219 C 28.203125 26.894531 27.382812 27.714844 27.308594 28.742188 L 2.6875 28.742188 C 2.617188 27.71875 1.796875 26.898438 0.773438 26.824219 L 0.773438 3.886719 C 1.660156 3.8125 2.355469 3.066406 2.351562 2.164062 L 2.351562 1.875 L 2.636719 1.875 C 3.542969 1.875 4.285156 1.175781 4.355469 0.289062 L 25.640625 0.289062 C 25.714844 1.175781 26.457031 1.875 27.359375 1.875 L 27.644531 1.875 L 27.644531 2.164062 C 27.644531 3.066406 28.339844 3.8125 29.222656 3.886719 Z M 27.007812 2.558594 L 27.003906 2.515625 L 26.960938 2.511719 C 26.46875 2.425781 26.019531 2.195312 25.664062 1.839844 C 25.421875 1.59375 25.242188 1.3125 25.121094 0.996094 L 25.105469 0.957031 L 4.890625 0.957031 L 4.878906 0.996094 C 4.757812 1.3125 4.574219 1.59375 4.332031 1.839844 C 3.976562 2.195312 3.527344 2.425781 3.035156 2.511719 L 2.996094 2.515625 L 2.988281 2.558594 C 2.851562 3.394531 2.273438 4.101562 1.480469 4.402344 L 1.441406 4.417969 L 1.441406 26.277344 L 1.480469 26.289062 C 2.304688 26.5625 2.953125 27.214844 3.222656 28.035156 L 3.238281 28.074219 L 26.761719 28.074219 L 26.773438 28.035156 C 27.042969 27.210938 27.695312 26.558594 28.515625 26.289062 L 28.558594 26.273438 L 28.558594 4.417969 L 28.519531 4.402344 C 27.726562 4.101562 27.148438 3.394531 27.007812 2.558594 Z M 28.441406 26.191406 C 27.617188 26.476562 26.960938 27.132812 26.675781 27.957031 L 3.320312 27.957031 C 3.035156 27.132812 2.382812 26.476562 1.558594 26.191406 L 1.558594 4.5 C 2.359375 4.179688 2.941406 3.464844 3.097656 2.617188 C 3.597656 2.527344 4.050781 2.285156 4.414062 1.921875 C 4.65625 1.675781 4.84375 1.390625 4.96875 1.074219 L 25.027344 1.074219 C 25.152344 1.390625 25.339844 1.675781 25.582031 1.921875 C 25.945312 2.285156 26.402344 2.527344 26.902344 2.617188 C 27.054688 3.464844 27.640625 4.179688 28.441406 4.5 Z M 28.441406 26.191406 " clip-rule="nonzero"/></clipPath><clipPath id="03afa23bd2"><path d="M 0.484375 0 L 29.515625 0 L 29.515625 29.03125 L 0.484375 29.03125 Z M 0.484375 0 " clip-rule="nonzero"/></clipPath><clipPath id="1cc35322f3"><path d="M 29.371094 3.601562 C 28.578125 3.601562 27.933594 2.957031 27.933594 2.164062 L 27.9375 1.585938 L 27.359375 1.585938 C 26.566406 1.585938 25.925781 0.9375 25.925781 0.144531 L 25.925781 0 L 4.070312 0 L 4.070312 0.144531 C 4.074219 0.53125 3.925781 0.890625 3.652344 1.164062 C 3.382812 1.433594 3.023438 1.585938 2.636719 1.585938 L 2.0625 1.585938 L 2.0625 2.164062 C 2.0625 2.957031 1.421875 3.601562 0.628906 3.605469 L 0.484375 3.601562 L 0.484375 27.109375 L 0.628906 27.109375 C 1.605469 27.109375 2.402344 27.90625 2.402344 28.886719 L 2.402344 29.03125 L 27.59375 29.03125 L 27.59375 28.882812 C 27.59375 27.90625 28.390625 27.109375 29.371094 27.109375 L 29.515625 27.109375 L 29.515625 3.601562 Z M 29.222656 26.824219 C 28.203125 26.894531 27.382812 27.714844 27.308594 28.742188 L 2.6875 28.742188 C 2.617188 27.71875 1.796875 26.898438 0.773438 26.824219 L 0.773438 3.886719 C 1.660156 3.8125 2.355469 3.066406 2.351562 2.164062 L 2.351562 1.875 L 2.636719 1.875 C 3.542969 1.875 4.285156 1.175781 4.355469 0.289062 L 25.640625 0.289062 C 25.714844 1.175781 26.457031 1.875 27.359375 1.875 L 27.644531 1.875 L 27.644531 2.164062 C 27.644531 3.066406 28.339844 3.8125 29.222656 3.886719 Z M 27.007812 2.558594 L 27.003906 2.515625 L 26.960938 2.511719 C 26.46875 2.425781 26.019531 2.195312 25.664062 1.839844 C 25.421875 1.59375 25.242188 1.3125 25.121094 0.996094 L 25.105469 0.957031 L 4.890625 0.957031 L 4.878906 0.996094 C 4.757812 1.3125 4.574219 1.59375 4.332031 1.839844 C 3.976562 2.195312 3.527344 2.425781 3.035156 2.511719 L 2.996094 2.515625 L 2.988281 2.558594 C 2.851562 3.394531 2.273438 4.101562 1.480469 4.402344 L 1.441406 4.417969 L 1.441406 26.277344 L 1.480469 26.289062 C 2.304688 26.5625 2.953125 27.214844 3.222656 28.035156 L 3.238281 28.074219 L 26.761719 28.074219 L 26.773438 28.035156 C 27.042969 27.210938 27.695312 26.558594 28.515625 26.289062 L 28.558594 26.273438 L 28.558594 4.417969 L 28.519531 4.402344 C 27.726562 4.101562 27.148438 3.394531 27.007812 2.558594 Z M 28.441406 26.191406 C 27.617188 26.476562 26.960938 27.132812 26.675781 27.957031 L 3.320312 27.957031 C 3.035156 27.132812 2.382812 26.476562 1.558594 26.191406 L 1.558594 4.5 C 2.359375 4.179688 2.941406 3.464844 3.097656 2.617188 C 3.597656 2.527344 4.050781 2.285156 4.414062 1.921875 C 4.65625 1.675781 4.84375 1.390625 4.96875 1.074219 L 25.027344 1.074219 C 25.152344 1.390625 25.339844 1.675781 25.582031 1.921875 C 25.945312 2.285156 26.402344 2.527344 26.902344 2.617188 C 27.054688 3.464844 27.640625 4.179688 28.441406 4.5 Z M 28.441406 26.191406 " clip-rule="nonzero"/></clipPath><clipPath id="7b8cbdec35"><rect x="0" width="30" y="0" height="30"/></clipPath><clipPath id="5e336c2591"><path d="M 7.160156 10 L 23.128906 10 L 23.128906 22.644531 L 7.160156 22.644531 Z M 7.160156 10 " clip-rule="nonzero"/></clipPath><clipPath id="23210bf3e3"><path d="M 12 6.675781 L 19 6.675781 L 19 19 L 12 19 Z M 12 6.675781 " clip-rule="nonzero"/></clipPath></defs><g clip-path="url(#6d5444cde8)"><path fill="#ffffff" d="M 0.484375 0 L 29.515625 0 L 29.515625 29.03125 L 0.484375 29.03125 Z M 0.484375 0 " fill-opacity="1" fill-rule="nonzero"/><path fill="#ffffff" d="M 0.484375 0 L 29.515625 0 L 29.515625 29.03125 L 0.484375 29.03125 Z M 0.484375 0 " fill-opacity="1" fill-rule="nonzero"/></g><g clip-path="url(#639798474c)"><g clip-path="url(#03e56c6a91)"><g transform="matrix(1, 0, 0, 1, 0, 0.000000000000005692)"><g clip-path="url(#7b8cbdec35)"><g clip-path="url(#03afa23bd2)"><g clip-path="url(#1cc35322f3)"><path fill="#919191" d="M 0.484375 0 L 29.515625 0 L 29.515625 29.03125 L 0.484375 29.03125 Z M 0.484375 0 " fill-opacity="1" fill-rule="nonzero"/></g></g></g></g></g></g><g clip-path="url(#5e336c2591)"><path fill="#000000" d="M 20.160156 10.972656 L 17.507812 10.972656 L 17.507812 12.554688 L 20.160156 12.554688 C 20.941406 12.554688 21.5625 12.953125 21.5625 13.304688 L 21.5625 20.3125 C 21.5625 20.664062 20.957031 21.066406 20.160156 21.066406 L 10.132812 21.066406 C 9.347656 21.066406 8.726562 20.664062 8.726562 20.3125 L 8.726562 13.320312 C 8.726562 12.96875 9.332031 12.570312 10.132812 12.570312 L 12.78125 12.570312 L 12.78125 10.988281 L 10.132812 10.988281 C 8.46875 10.988281 7.160156 12.011719 7.160156 13.304688 L 7.160156 20.3125 C 7.160156 21.625 8.46875 22.644531 10.132812 22.644531 L 20.160156 22.644531 C 21.820312 22.644531 23.128906 21.625 23.128906 20.3125 L 23.128906 13.304688 C 23.128906 11.996094 21.820312 10.972656 20.160156 10.972656 " fill-opacity="1" fill-rule="nonzero"/></g><g clip-path="url(#23210bf3e3)"><path fill="#000000" d="M 17.523438 14.277344 C 17.316406 14.277344 17.125 14.359375 16.964844 14.519531 L 15.976562 15.507812 L 15.976562 7.460938 C 15.976562 7.027344 15.625 6.675781 15.191406 6.675781 C 14.761719 6.675781 14.410156 7.027344 14.410156 7.460938 L 14.410156 15.539062 L 13.371094 14.5 C 13.210938 14.34375 13.019531 14.261719 12.8125 14.261719 C 12.605469 14.261719 12.414062 14.34375 12.253906 14.5 C 11.953125 14.804688 11.953125 15.316406 12.253906 15.621094 L 14.601562 17.984375 C 14.761719 18.140625 14.953125 18.222656 15.160156 18.222656 C 15.367188 18.222656 15.558594 18.140625 15.71875 17.984375 L 18.082031 15.621094 C 18.386719 15.316406 18.386719 14.804688 18.082031 14.5 C 17.925781 14.359375 17.730469 14.277344 17.523438 14.277344 " fill-opacity="1" fill-rule="nonzero"/></g></svg>