<svg xmlns="http://www.w3.org/2000/svg" xmlns:xlink="http://www.w3.org/1999/xlink" width="40" zoomAndPan="magnify" viewBox="0 0 30 30.000001" height="40" preserveAspectRatio="xMidYMid meet" version="1.0"><defs><clipPath id="f768fe99cf"><path d="M 0.484375 0 L 29.515625 0 L 29.515625 29.03125 L 0.484375 29.03125 Z M 0.484375 0 " clip-rule="nonzero"/></clipPath><clipPath id="6bc155a7e7"><path d="M 0.484375 0 L 29.515625 0 L 29.515625 29.03125 L 0.484375 29.03125 Z M 0.484375 0 " clip-rule="nonzero"/></clipPath><clipPath id="756e45f70f"><path d="M 29.371094 3.601562 C 28.578125 3.601562 27.933594 2.957031 27.933594 2.164062 L 27.9375 1.585938 L 27.359375 1.585938 C 26.566406 1.585938 25.925781 0.9375 25.925781 0.144531 L 25.925781 0 L 4.070312 0 L 4.070312 0.144531 C 4.074219 0.53125 3.925781 0.890625 3.652344 1.164062 C 3.382812 1.433594 3.023438 1.585938 2.636719 1.585938 L 2.0625 1.585938 L 2.0625 2.164062 C 2.0625 2.957031 1.421875 3.601562 0.628906 3.605469 L 0.484375 3.601562 L 0.484375 27.109375 L 0.628906 27.109375 C 1.605469 27.109375 2.402344 27.90625 2.402344 28.886719 L 2.402344 29.03125 L 27.59375 29.03125 L 27.59375 28.882812 C 27.59375 27.90625 28.390625 27.109375 29.371094 27.109375 L 29.515625 27.109375 L 29.515625 3.601562 Z M 29.222656 26.824219 C 28.203125 26.894531 27.382812 27.714844 27.308594 28.742188 L 2.6875 28.742188 C 2.617188 27.71875 1.796875 26.898438 0.773438 26.824219 L 0.773438 3.886719 C 1.660156 3.8125 2.355469 3.066406 2.351562 2.164062 L 2.351562 1.875 L 2.636719 1.875 C 3.542969 1.875 4.285156 1.175781 4.355469 0.289062 L 25.640625 0.289062 C 25.714844 1.175781 26.457031 1.875 27.359375 1.875 L 27.644531 1.875 L 27.644531 2.164062 C 27.644531 3.066406 28.339844 3.8125 29.222656 3.886719 Z M 27.007812 2.558594 L 27.003906 2.515625 L 26.960938 2.511719 C 26.46875 2.425781 26.019531 2.195312 25.664062 1.839844 C 25.421875 1.59375 25.242188 1.3125 25.121094 0.996094 L 25.105469 0.957031 L 4.890625 0.957031 L 4.878906 0.996094 C 4.757812 1.3125 4.574219 1.59375 4.332031 1.839844 C 3.976562 2.195312 3.527344 2.425781 3.035156 2.511719 L 2.996094 2.515625 L 2.988281 2.558594 C 2.851562 3.394531 2.273438 4.101562 1.480469 4.402344 L 1.441406 4.417969 L 1.441406 26.277344 L 1.480469 26.289062 C 2.304688 26.5625 2.953125 27.214844 3.222656 28.035156 L 3.238281 28.074219 L 26.761719 28.074219 L 26.773438 28.035156 C 27.042969 27.210938 27.695312 26.558594 28.515625 26.289062 L 28.558594 26.273438 L 28.558594 4.417969 L 28.519531 4.402344 C 27.726562 4.101562 27.148438 3.394531 27.007812 2.558594 Z M 28.441406 26.191406 C 27.617188 26.476562 26.960938 27.132812 26.675781 27.957031 L 3.320312 27.957031 C 3.035156 27.132812 2.382812 26.476562 1.558594 26.191406 L 1.558594 4.5 C 2.359375 4.179688 2.941406 3.464844 3.097656 2.617188 C 3.597656 2.527344 4.050781 2.285156 4.414062 1.921875 C 4.65625 1.675781 4.84375 1.390625 4.96875 1.074219 L 25.027344 1.074219 C 25.152344 1.390625 25.339844 1.675781 25.582031 1.921875 C 25.945312 2.285156 26.402344 2.527344 26.902344 2.617188 C 27.054688 3.464844 27.640625 4.179688 28.441406 4.5 Z M 28.441406 26.191406 " clip-rule="nonzero"/></clipPath><clipPath id="f5b5dd9f7a"><path d="M 0.484375 0 L 29.515625 0 L 29.515625 29.03125 L 0.484375 29.03125 Z M 0.484375 0 " clip-rule="nonzero"/></clipPath><clipPath id="92b582bde2"><path d="M 29.371094 3.601562 C 28.578125 3.601562 27.933594 2.957031 27.933594 2.164062 L 27.9375 1.585938 L 27.359375 1.585938 C 26.566406 1.585938 25.925781 0.9375 25.925781 0.144531 L 25.925781 0 L 4.070312 0 L 4.070312 0.144531 C 4.074219 0.53125 3.925781 0.890625 3.652344 1.164062 C 3.382812 1.433594 3.023438 1.585938 2.636719 1.585938 L 2.0625 1.585938 L 2.0625 2.164062 C 2.0625 2.957031 1.421875 3.601562 0.628906 3.605469 L 0.484375 3.601562 L 0.484375 27.109375 L 0.628906 27.109375 C 1.605469 27.109375 2.402344 27.90625 2.402344 28.886719 L 2.402344 29.03125 L 27.59375 29.03125 L 27.59375 28.882812 C 27.59375 27.90625 28.390625 27.109375 29.371094 27.109375 L 29.515625 27.109375 L 29.515625 3.601562 Z M 29.222656 26.824219 C 28.203125 26.894531 27.382812 27.714844 27.308594 28.742188 L 2.6875 28.742188 C 2.617188 27.71875 1.796875 26.898438 0.773438 26.824219 L 0.773438 3.886719 C 1.660156 3.8125 2.355469 3.066406 2.351562 2.164062 L 2.351562 1.875 L 2.636719 1.875 C 3.542969 1.875 4.285156 1.175781 4.355469 0.289062 L 25.640625 0.289062 C 25.714844 1.175781 26.457031 1.875 27.359375 1.875 L 27.644531 1.875 L 27.644531 2.164062 C 27.644531 3.066406 28.339844 3.8125 29.222656 3.886719 Z M 27.007812 2.558594 L 27.003906 2.515625 L 26.960938 2.511719 C 26.46875 2.425781 26.019531 2.195312 25.664062 1.839844 C 25.421875 1.59375 25.242188 1.3125 25.121094 0.996094 L 25.105469 0.957031 L 4.890625 0.957031 L 4.878906 0.996094 C 4.757812 1.3125 4.574219 1.59375 4.332031 1.839844 C 3.976562 2.195312 3.527344 2.425781 3.035156 2.511719 L 2.996094 2.515625 L 2.988281 2.558594 C 2.851562 3.394531 2.273438 4.101562 1.480469 4.402344 L 1.441406 4.417969 L 1.441406 26.277344 L 1.480469 26.289062 C 2.304688 26.5625 2.953125 27.214844 3.222656 28.035156 L 3.238281 28.074219 L 26.761719 28.074219 L 26.773438 28.035156 C 27.042969 27.210938 27.695312 26.558594 28.515625 26.289062 L 28.558594 26.273438 L 28.558594 4.417969 L 28.519531 4.402344 C 27.726562 4.101562 27.148438 3.394531 27.007812 2.558594 Z M 28.441406 26.191406 C 27.617188 26.476562 26.960938 27.132812 26.675781 27.957031 L 3.320312 27.957031 C 3.035156 27.132812 2.382812 26.476562 1.558594 26.191406 L 1.558594 4.5 C 2.359375 4.179688 2.941406 3.464844 3.097656 2.617188 C 3.597656 2.527344 4.050781 2.285156 4.414062 1.921875 C 4.65625 1.675781 4.84375 1.390625 4.96875 1.074219 L 25.027344 1.074219 C 25.152344 1.390625 25.339844 1.675781 25.582031 1.921875 C 25.945312 2.285156 26.402344 2.527344 26.902344 2.617188 C 27.054688 3.464844 27.640625 4.179688 28.441406 4.5 Z M 28.441406 26.191406 " clip-rule="nonzero"/></clipPath><clipPath id="cb445a332f"><rect x="0" width="30" y="0" height="30"/></clipPath><clipPath id="a50a2373e8"><path d="M 8.007812 6.945312 L 21.796875 6.945312 L 21.796875 22.1875 L 8.007812 22.1875 Z M 8.007812 6.945312 " clip-rule="nonzero"/></clipPath></defs><g clip-path="url(#f768fe99cf)"><path fill="#ffffff" d="M 0.484375 0 L 29.515625 0 L 29.515625 29.03125 L 0.484375 29.03125 Z M 0.484375 0 " fill-opacity="1" fill-rule="nonzero"/><path fill="#ffffff" d="M 0.484375 0 L 29.515625 0 L 29.515625 29.03125 L 0.484375 29.03125 Z M 0.484375 0 " fill-opacity="1" fill-rule="nonzero"/></g><g clip-path="url(#6bc155a7e7)"><g clip-path="url(#756e45f70f)"><g transform="matrix(1, 0, 0, 1, 0.000000000000000056, 0.000000000000005692)"><g clip-path="url(#cb445a332f)"><g clip-path="url(#f5b5dd9f7a)"><g clip-path="url(#92b582bde2)"><path fill="#919191" d="M 0.484375 0 L 29.515625 0 L 29.515625 29.03125 L 0.484375 29.03125 Z M 0.484375 0 " fill-opacity="1" fill-rule="nonzero"/></g></g></g></g></g></g><g clip-path="url(#a50a2373e8)"><path fill="#000000" d="M 17.980469 6.945312 L 9.734375 6.945312 C 8.46875 6.945312 8.011719 7.996094 8.011719 8.703125 L 8.011719 20.429688 C 8.011719 21.71875 9.039062 22.1875 9.734375 22.1875 L 20.070312 22.1875 C 21.332031 22.1875 21.792969 21.136719 21.792969 20.429688 L 21.792969 10.1875 Z M 11.457031 8.117188 L 14.328125 8.117188 L 14.328125 10.460938 L 16.050781 10.460938 L 16.050781 8.117188 L 17.199219 8.117188 L 17.199219 11.046875 C 17.199219 11.519531 16.882812 11.628906 16.625 11.636719 L 12.03125 11.636719 C 11.566406 11.636719 11.460938 11.3125 11.457031 11.046875 Z M 18.347656 21.015625 L 11.457031 21.015625 L 11.457031 16.324219 L 18.347656 16.324219 Z M 20.644531 20.421875 C 20.636719 20.691406 20.53125 21.015625 20.070312 21.015625 L 19.496094 21.015625 L 19.496094 15.152344 L 10.308594 15.152344 L 10.308594 21.015625 L 9.738281 21.015625 C 9.472656 21.007812 9.160156 20.902344 9.160156 20.429688 L 9.160156 8.710938 C 9.164062 8.441406 9.269531 8.117188 9.734375 8.117188 L 10.308594 8.117188 L 10.308594 11.046875 C 10.308594 11.753906 10.765625 12.808594 12.03125 12.808594 L 16.625 12.808594 C 17.316406 12.808594 18.347656 12.339844 18.347656 11.046875 L 18.347656 8.78125 L 20.644531 10.738281 Z M 17.199219 18.667969 L 12.605469 18.667969 L 12.605469 17.496094 L 17.199219 17.496094 Z M 17.199219 18.667969 " fill-opacity="1" fill-rule="nonzero"/></g></svg>